<svg xmlns="http://www.w3.org/2000/svg" width="24" height="24" viewBox="0 0 24 24">
  <path fill="#000" d="M3.91 4.3C3.1 4.32 2.11 4.39 1.93 4.43 1.84 4.46 1.79 4.51 1.77 4.6 1.73 4.74 1.82 4.89 1.95 4.9 2 4.91 2.51 4.91 3.1 4.92 4.15 4.93 4.48 4.94 5.35 5.01 7.1 5.15 8.62 5.39 10.07 5.76 10.61 5.9 11.5 6.18 11.42 6.18 11.41 6.18 11.25 6.17 11.06 6.15 9.13 5.95 6.98 6 5.18 6.29 3.88 6.49 2.19 6.9 1.01 7.29L0.77 7.37 0.77 7.6 0.77 7.83 0.81 7.84C0.84 7.84 1.03 7.81 1.29 7.75 2.55 7.47 3.99 7.24 5.4 7.1 6.01 7.03 6.1 7.03 6.53 7 8.03 6.89 9.33 6.9 10.65 7.01L10.91 7.03 10.68 7.06C9.12 7.27 7.28 7.77 5.73 8.42 5.13 8.67 4.42 9.01 3.86 9.32 3.36 9.6 2.73 10.01 2.57 10.15 2.41 10.29 2.46 10.53 2.67 10.58 2.75 10.61 2.78 10.59 3.08 10.43 3.71 10.11 4.83 9.62 5.65 9.32 7.83 8.51 10.05 8.02 11.95 7.93 12.38 7.91 12.51 7.89 12.58 7.84 12.61 7.82 12.63 7.81 12.64 7.81 12.64 7.81 12.7 7.95 12.76 8.12 12.83 8.28 12.9 8.46 12.92 8.51L12.97 8.6 12.81 8.72C12.04 9.26 11.68 9.76 11.48 10.56 11.26 11.42 11.31 12.15 11.64 12.86 11.81 13.21 11.96 13.43 12.26 13.74 12.75 14.24 13.33 14.56 14.05 14.72 14.31 14.78 14.48 14.79 15.1 14.83 16.88 14.92 17.57 15.03 18.43 15.4 19.17 15.71 19.64 16.12 20.14 16.88 20.79 17.87 21.18 19 21.31 20.25 21.35 20.59 21.37 20.66 21.45 20.71 21.51 20.75 21.66 20.75 21.72 20.7 21.83 20.62 21.84 20.59 21.84 20.18 21.86 18.98 21.55 17.68 20.99 16.65 20.79 16.28 20.57 15.97 20.22 15.56L20.14 15.48 20.26 15.55C21 15.95 21.57 16.51 21.94 17.2 22.07 17.43 22.21 17.81 22.27 18.09 22.3 18.26 22.35 18.32 22.45 18.35 22.59 18.38 22.72 18.32 22.76 18.19 22.78 18.08 22.77 17.69 22.72 17.49 22.61 16.94 22.39 16.45 22.06 16.02 21.91 15.82 21.57 15.47 21.36 15.3 21.02 15.02 20.51 14.72 20.02 14.52 19.57 14.33 18.87 14.12 18.24 14 17.46 13.86 16.69 13.79 15.55 13.75 15.04 13.74 14.91 13.73 14.71 13.7 13.59 13.5 12.76 12.76 12.56 11.77 12.52 11.56 12.52 11.13 12.57 10.92 12.72 10.14 13.31 9.57 14.12 9.41 14.35 9.36 14.99 9.36 15.29 9.42 16.01 9.54 16.77 9.81 18 10.37 18.37 10.54 18.37 10.54 18.37 10.59 18.37 10.66 18.41 10.81 18.46 10.91 18.56 11.09 18.68 11.19 19.09 11.37 19.47 11.55 19.8 11.78 20.08 12.08 20.3 12.33 20.39 12.34 20.6 12.15 20.67 12.08 20.81 11.98 20.91 11.91 21.12 11.76 21.17 11.71 21.19 11.62 21.21 11.47 21.12 11.35 20.96 11.33 20.74 11.3 20.53 11.21 20.33 11.06 20.21 10.98 20.21 10.97 20.2 10.89 20.19 10.79 20.15 10.73 20.04 10.58 19.99 10.51 19.87 10.32 19.77 10.15 19.59 9.85 19.52 9.78 19.44 9.78 19.42 9.78 19.42 9.77 19.45 9.73 19.51 9.67 19.52 9.58 19.5 9.49 19.48 9.43 19.44 9.37 19.28 9.21 18.35 8.26 17.03 7.45 15.68 7.01 15.46 6.94 15.37 6.94 15.28 7.01 15.19 7.09 15.18 7.25 15.26 7.36 15.27 7.38 15.39 7.44 15.55 7.51 16.06 7.73 16.55 7.97 16.95 8.22 17.17 8.35 17.58 8.62 17.58 8.63 17.58 8.64 17.56 8.65 17.53 8.65 17.46 8.67 17.4 8.73 17.36 8.82L17.33 8.91 17.27 8.83C17.19 8.74 17.15 8.67 17.11 8.54 17.07 8.42 17.03 8.37 16.93 8.34 16.79 8.3 16.66 8.38 16.62 8.54L16.6 8.61 16.42 8.55C15.77 8.34 15.12 8.23 14.39 8.2 14.06 8.19 14.03 8.19 13.94 8.14 13.63 8.01 13.39 7.68 13.23 7.17 13.12 6.83 13.09 6.62 13.08 6.23 13.08 5.93 13.07 5.88 13.04 5.84 12.96 5.72 12.17 5.41 11.37 5.17 9.62 4.64 7.62 4.36 5.34 4.3 4.65 4.28 4.65 4.28 3.91 4.3Z"/>
</svg>
